<?xml version="1.0" encoding="utf-8"?>
<!-- Generator: Adobe Illustrator 22.0.1, SVG Export Plug-In . SVG Version: 6.00 Build 0)  -->
<svg version="1.1"
	 id="Layer_1" inkscape:version="0.48.4 r9939" sodipodi:docname="Star_Wars_Logo.svg" xmlns:cc="http://creativecommons.org/ns#" xmlns:dc="http://purl.org/dc/elements/1.1/" xmlns:inkscape="http://www.inkscape.org/namespaces/inkscape" xmlns:rdf="http://www.w3.org/1999/02/22-rdf-syntax-ns#" xmlns:sodipodi="http://sodipodi.sourceforge.net/DTD/sodipodi-0.dtd" xmlns:svg="http://www.w3.org/2000/svg"
	 xmlns="http://www.w3.org/2000/svg" xmlns:xlink="http://www.w3.org/1999/xlink" x="0px" y="0px" viewBox="0 0 634.1 271.4"
	 style="enable-background:new 0 0 634.1 271.4;" xml:space="preserve">
<style type="text/css">
	.st0{fill:#FFE81F;}
	.st1{fill:#FFFFFF;}
	.st2{font-family:'SerifGothicStd-Bold';}
	.st3{font-size:43px;}
	.st4{letter-spacing:8;}
</style>
<sodipodi:namedview  bordercolor="#666666" borderopacity="1" fit-margin-bottom="0" fit-margin-left="0" fit-margin-right="0" fit-margin-top="0" gridtolerance="10" guidetolerance="10" id="namedview31" inkscape:current-layer="Layer_1" inkscape:cx="442.43711" inkscape:cy="139.56537" inkscape:pageopacity="0" inkscape:pageshadow="2" inkscape:window-height="962" inkscape:window-maximized="1" inkscape:window-width="1280" inkscape:window-x="-8" inkscape:window-y="-8" inkscape:zoom="1.5916752" objecttolerance="10" pagecolor="#ffffff" showgrid="false">
	</sodipodi:namedview>
<g id="Layer_2_1_" transform="translate(-29.908,-73.916003)">
	<g id="g7">
		<path id="path9" inkscape:connector-curvature="0" class="st0" d="M200.5,238.9l6.3,18.5c3.4,10,6.4,18,6.8,18l0,0
			c0.4-0.4,12.7-36.1,12.7-36.1h23.9L221.5,323h-16.6c0,0-17.7-51.1-17.6-51.3l-18.5,50.7h-16.4L124,238.9h23.7
			c0,0,13,36.9,13.2,36.9l0,0l13-36.9L200.5,238.9 M115.8,233l2.6,7.7l28.4,83.5l1.3,3.9h4.2h16.4h4.1l1.4-3.8l12.8-35.2
			c1.1,3.2,2.3,6.7,3.5,10.1c4.4,12.8,8.8,25.6,8.8,25.6l1.4,3.9h4.1h16.6h4.1l1.3-3.9l28.8-83.9l2.6-7.7h-8.1h-23.9h-4.1l-1.3,3.9
			c-2.2,6.3-5,14.5-7.5,21.5c-0.4-1.1-0.8-2.2-1.2-3.3L206,237l-1.3-3.9h-4.2h-26.7h-4.1l-1.4,3.9l-7.6,21.5
			c-2.5-7-5.4-15.2-7.6-21.5l-1.4-3.9h-4.1h-23.7L115.8,233L115.8,233L115.8,233z"/>
	</g>
	<g id="g11">
		<path id="path13" inkscape:connector-curvature="0" class="st0" d="M567.9,238.5l-0.1,22c0,0-23.7-0.1-35.7-0.1c-4,0-6.7,0-6.9,0
			c-2.1,0.4-3.4,4.8-2.8,6.7c0.3,1,2.5,4.2,4.8,7.1s6.2,7.7,8.5,10.7c6,7.5,6.9,9,7.4,13.3c0.9,7-2.4,14.6-8.6,19.6
			c-6.2,5-5.9,5.1-51.8,5.1c-0.7,0-1.3,0-2,0c-27.9,0-42.7-0.2-44.8-0.7c-3.8-0.9-9.9-5.8-26-21.2c-5.8-5.5-11.1-10.4-11.4-10.4l0,0
			l-0.2,32.3l-26-0.1l-0.2-83.4h32.8h25.2c17.5,0.6,29.3,18.1,27,29.2c-0.5,2.5-1.9,6.2-3,8.1c-2.3,4-8.3,9.1-13.1,11.3
			c-1.8,0.8-3.2,1.7-3.2,2.1c0,1.2,5.8,7,8,7.9c1.9,0.8,7.3,1,31.3,1c2.8,0,5.4,0,7.7,0c24.2,0,22.9-0.2,24.8-4.2
			c1.3-2.8,0.3-4.4-8.9-14.8c-11.6-11.6-10.4-17.1-10.5-21.2c-0.2-4.9,3.7-20.4,23.8-20.4L567.9,238.5 M411.9,277.1
			c11.1,0,13.4-0.2,15.8-1.2c8-3.5,8.4-13.8,0.8-18.3c-1.7-1-3.8-1.2-15.9-1.2l-14-0.1c0.1,0.1,0,20,0,20S402,277.1,411.9,277.1
			 M573.8,232.7H568h-53.5c-11.6,0-18.5,4.6-22.2,8.4c-6.1,6.3-7.5,14.1-7.4,17.9c0,0.3,0,0.6,0,1c-0.1,6,0.8,12.9,12.1,24.1
			c2.2,2.5,5.9,6.7,7.3,8.8c-3.1,0.4-10.9,0.4-19.1,0.4h-3.5h-4.2c-14.4,0-26.6,0-29.1-0.5c-0.3-0.2-0.8-0.6-1.4-1.1
			c5-3.1,10-7.8,12.4-11.9c1.4-2.5,3-6.7,3.7-9.8c1.5-7-1-15.4-6.5-22.5c-6.5-8.3-15.9-13.3-25.9-13.7h-0.1h-0.1h-25.2h-32.8h-5.8
			v5.8l0.2,83.4v5.8h5.8l26,0.1h5.8v-5.8l0.1-19.4c0.5,0.5,1.1,1,1.6,1.6c17.6,16.9,23.5,21.5,28.7,22.7c1.4,0.3,3.8,0.9,46.1,0.9h2
			c22.9,0,34.4,0,41.2-0.7c7.8-0.8,10.3-2.5,14.1-5.6l0.1-0.1c7.8-6.3,11.8-15.8,10.7-24.9c-0.8-5.9-2.3-8.3-8.6-16.2l-1.9-2.4
			c-2.2-2.8-4.9-6.1-6.7-8.3c-1.4-1.8-2.6-3.4-3.3-4.4c0.9,0,2.1,0,3.6,0c11.9,0,35.5,0.1,35.7,0.1h5.8v-5.8l0.1-22L573.8,232.7
			L573.8,232.7L573.8,232.7z M404.3,271c0-1.5,0-3.1,0-4.8c0-1.5,0-2.9,0-4.2h8.1c4.7,0,11.7,0.1,13,0.5c1.7,1.1,2.7,2.7,2.6,4.4
			c-0.1,0.9-0.5,2.6-2.8,3.6c-1.3,0.6-3.3,0.7-13.5,0.7C408.7,271.3,406.2,271.2,404.3,271L404.3,271z"/>
	</g>
	<g id="g15">
		<path id="path17" inkscape:connector-curvature="0" class="st0" d="M319.6,238.2l29.2,84.1l-23.8,0.1l-4-12.6l-42.6-0.3l-3.8,12.6
			l-23.6-0.2l28.9-83.6L319.6,238.2 M300.4,250.5c-0.1,0.2-3.7,10.3-7.4,20.4c-3.7,10.2-7.4,20.3-7.5,20.4l0,0l0,0l0,0
			c0.1,0,13.3-0.1,21.7-0.1c4,0,6.9,0,6.9,0l0,0l0,0l0,0C314.1,290.9,300.5,251,300.4,250.5L300.4,250.5L300.4,250.5L300.4,250.5
			 M323.7,232.4h-4.1H280h-4.1l-1.3,3.9l-28.9,83.6l-2.6,7.6l8.1,0.1l23.6,0.2h4.4l1.2-4.2l2.5-8.5l34,0.3l2.7,8.6l1.3,4.1h4.3
			L349,328h8.1l-2.7-7.7l-29.2-84.1L323.7,232.4L323.7,232.4L323.7,232.4z M293.9,285.4c1.1-3,2.6-7,4.6-12.5
			c0.6-1.7,1.2-3.3,1.7-4.7c0.5,1.4,1,3,1.6,4.6c0.5,1.4,2.5,7.4,4.3,12.6C300.8,285.4,296.9,285.4,293.9,285.4L293.9,285.4
			L293.9,285.4z"/>
	</g>
	<g id="g19">
		<path id="path21" inkscape:connector-curvature="0" class="st0" d="M331,102.1v20.7h-41.6v63.5h-24.8v-63.5l-48.5,0.1
			c-5.8,0-6.6,4.7-6.6,6.4c0,2.2,1.4,4.4,9.3,14.3c5.1,6.5,9.8,12.9,10.4,14.3c3.4,7.7-1,19.8-8.9,24.7c-5.7,3.5-4.7,3.6-46.6,3.6
			c-2.2,0-4.4,0-6.8,0h-45.2V163h71l2.1-1.5c1.4-1,2.2-2.3,2.5-4.2c0.4-2.7,0.2-3-8.6-12.9c-10.4-11.7-11.5-13.8-10.9-21.3
			c0.6-8.5,8.2-20.9,21.5-20.9L331,102.1 M336.8,96.3H331l-131.7,0.2c-7.6,0-14.6,3.3-19.8,9.2c-4.2,4.8-7,11.2-7.4,17
			c-0.7,9.8,1.6,13.3,12.4,25.5c3.1,3.5,6.1,6.9,7.1,8.3c0,0.1,0,0.1,0,0.1s0,0-0.1,0l-0.6,0.4h-69.2h-5.8v5.8v23.3v5.8h5.8h45.2
			h3.6h3.2c20.7,0,30.9,0,36.9-0.5c6.9-0.5,9.1-1.7,12.4-3.7l0.4-0.3c10.3-6.4,15.7-21.6,11.2-32c-1.4-3.2-10.2-14.3-11.2-15.6
			c-2.8-3.5-7.3-9.2-8-10.9c0-0.1,0.1-0.3,0.1-0.4c0.1,0,0.3-0.1,0.7-0.1l42.7-0.1V186v5.8h5.8h24.8h5.8V186v-57.6H331h5.8v-5.8
			v-20.7V96.3L336.8,96.3L336.8,96.3z"/>
	</g>
	<g id="g23">
		<path id="path25" inkscape:connector-curvature="0" class="st0" d="M398.5,102.8l29.1,84.3l-23.8-0.1l-3.9-12.6l-42.4-0.2
			l-3.8,12.2h-24.2l28.8-83.5L398.5,102.8 M364.5,156.2h28.9l0,0c0.1,0-14-41.5-14.1-41.5l0,0C379.2,114.7,364.2,156.2,364.5,156.2
			 M402.6,97h-4.1h-40h-4.1l-1.3,3.9l-28.8,83.5l-2.7,7.7h8.1h24.2h4.3l1.3-4.1l2.5-8.1l33.8,0.2l2.6,8.5l1.2,4.1h4.3l23.8,0.1h8.2
			l-2.7-7.7L404,100.9L402.6,97L402.6,97z M372.6,150.4c1.8-5.1,4.3-12.1,6.5-18.4c2.1,6.3,4.5,13.2,6.2,18.3L372.6,150.4
			L372.6,150.4L372.6,150.4z"/>
	</g>
	<g id="g27">
		<path id="path29" inkscape:connector-curvature="0" class="st0" d="M480.3,102.8c18.8,0,31.9,0.3,34.4,0.7c5.8,1,11,4.1,15,8.9
			c4.1,5,5.1,7.4,5.6,14.2c0.8,9.6-3.8,17.9-12.8,23.3c-2.6,1.6-5.3,3.1-6,3.4c-1,0.5-0.9,0.9,1,3.1c1.2,1.4,3.3,3.4,4.6,4.4
			l2.4,1.9l45,0.6l0.4,23h-27.6c-21.4,0-28.2-0.2-30.2-0.9c-3-1-10.2-7.1-24.9-21.1l-10.5-10l0.1,31.9H450v-83.5h30.3 M476.4,140.4
			h14.3c13.9,0,14.3,0,16.3-1.5c3.5-2.7,4.8-5.4,4.4-9.6c-0.4-4.3-2.1-6.6-6.2-8.4c-2.4-1-4.6-1.2-15.8-1.2h-13L476.4,140.4
			 M480.3,97H450h-5.8v5.8v83.5v5.8h5.8h26.9h5.8v-5.8l-0.1-18.3l0.6,0.6c18.1,17.2,23.5,21.2,27,22.4c2.7,0.9,7.2,1.2,32.1,1.2
			h27.6h5.9l-0.1-5.9l-0.4-23l-0.1-5.6l-5.6-0.1l-43.1-0.6l-0.9-0.7c-0.3-0.2-0.6-0.5-1-0.9c0.3-0.2,0.6-0.4,0.9-0.5
			c10.9-6.5,16.6-17,15.6-28.8c-0.6-7.9-2-11.5-6.9-17.4c-4.8-5.8-11.3-9.6-18.5-10.9C511.7,97.1,491.8,97,480.3,97L480.3,97
			L480.3,97z M482.2,125.5h7.2c10.2,0,12.2,0.2,13.4,0.7c2.4,1,2.6,1.5,2.8,3.6c0.2,2.1-0.1,2.9-2.1,4.4c-0.1,0.1-0.1,0.1-0.2,0.1
			c-1.4,0.3-6.4,0.3-12.7,0.3h-8.5L482.2,125.5L482.2,125.5z"/>
	</g>
	<text transform="matrix(1 0 0 1 143.3501 228.6158)" class="st1 st2 st3 st4">A TRIVIA GAME</text>
</g>
</svg>
